<svg width="109" height="25" viewBox="0 0 109 25" fill="none" xmlns="http://www.w3.org/2000/svg">
<path d="M91.8521 13.7558V11.3068C91.8521 10.9133 91.8186 10.5281 91.76 10.1472C91.7516 10.1053 91.7474 10.0635 91.739 10.0216C91.7181 9.91274 91.6972 9.8039 91.672 9.69506C91.6218 9.47737 91.5632 9.25968 91.4962 9.05036C91.4837 9.01269 91.4711 8.9792 91.4585 8.94152C91.4376 8.87035 91.4125 8.80337 91.3832 8.72383C91.3706 8.69453 91.3581 8.66104 91.3455 8.62755C91.2702 8.43498 91.1823 8.24659 91.0902 8.06239C91.0902 8.05402 91.0818 8.04146 91.0776 8.03309C91.0567 7.99123 91.0315 7.94936 91.0106 7.9075C90.9562 7.80703 90.9018 7.70237 90.839 7.59771C90.7762 7.48887 90.705 7.38003 90.6297 7.26281C90.6213 7.25444 90.6171 7.24606 90.6129 7.23769C90.5627 7.16234 90.5124 7.09536 90.458 7.02419C90.412 6.95721 90.3659 6.89023 90.3115 6.81906C90.165 6.63486 90.0059 6.45485 89.8426 6.28321C89.8343 6.27484 89.8301 6.26647 89.8217 6.25809L89.671 6.10739C89.5412 5.97761 89.4031 5.85621 89.2649 5.73481C89.244 5.71806 89.2231 5.69713 89.1979 5.6762C89.1812 5.66364 89.1603 5.64689 89.1435 5.63015C89.0933 5.59247 89.043 5.55061 88.9928 5.51293C88.9844 5.50874 88.9803 5.50456 88.9719 5.49619C88.9133 5.45432 88.8588 5.41246 88.8002 5.3706C88.7961 5.36641 88.7877 5.36222 88.7835 5.35804C88.7542 5.34129 88.7291 5.32036 88.6998 5.30362C88.6747 5.28687 88.6537 5.27013 88.6286 5.25338C88.6077 5.23663 88.5784 5.22408 88.5574 5.20733C88.4444 5.13616 88.3314 5.065 88.2183 4.99801C88.2016 4.98964 88.189 4.97708 88.1723 4.96871C88.1011 4.92685 88.0216 4.88498 87.9462 4.84731C87.7579 4.74684 87.5653 4.65474 87.3685 4.57101C86.502 4.2068 85.5517 4.00586 84.5553 4.00586C84.1953 4.00586 83.8395 4.03098 83.492 4.0854C79.9629 4.60032 77.2544 7.63539 77.2544 11.3068C77.2544 13.1948 77.9744 14.9196 79.155 16.2173C79.2513 16.322 79.3476 16.4225 79.448 16.5187C80.1681 17.2262 81.0304 17.7788 81.9933 18.1388C82.4705 18.3189 82.9729 18.4486 83.492 18.524C83.8395 18.5784 84.1953 18.6035 84.5553 18.6035C85.2712 18.6035 85.9619 18.4989 86.615 18.3063C86.7657 18.2602 86.8871 18.4361 86.7992 18.5658C86.3638 19.1812 85.761 19.6668 85.0577 19.9599C84.5763 20.1608 84.0488 20.2739 83.492 20.2739C82.6045 20.2739 81.784 19.985 81.1184 19.4994C81.0472 19.445 80.9467 19.4575 80.8881 19.5287L78.4014 22.6559C78.3428 22.7312 78.3554 22.8401 78.4308 22.8945C79.8374 23.9662 81.5872 24.5983 83.4962 24.5983C84.639 24.5983 85.7317 24.3681 86.7238 23.9494C88.277 23.3006 89.5915 22.1996 90.5041 20.8097H90.5208C90.8097 20.3701 91.0483 19.8929 91.245 19.3989C91.2702 19.3319 91.2995 19.265 91.3246 19.198C91.333 19.177 91.3413 19.1561 91.3455 19.1352L91.4083 18.9719C91.4083 18.9719 91.4125 18.9552 91.4167 18.9468C91.7935 17.8751 91.8646 16.7574 91.8688 15.6354C91.8688 15.0075 91.8521 14.3795 91.8521 13.7558ZM82.504 13.5213C82.504 13.5213 82.4747 13.4962 82.4622 13.4795C80.235 10.503 83.5799 7.17071 86.5396 9.4062C86.5564 9.41876 86.5689 9.43132 86.5815 9.44806C88.817 12.4078 85.4805 15.7526 82.5082 13.5255L82.504 13.5213Z" fill="black"/>
<path d="M13.078 0H0.167452C0.0753536 0 0 0.0753536 0 0.167452V4.32027C0 4.41237 0.0753536 4.48773 0.167452 4.48773H4.21143C4.30353 4.48773 4.37888 4.56308 4.37888 4.65518V18.2021C4.37888 18.2942 4.45423 18.3695 4.54633 18.3695H8.69915C8.79125 18.3695 8.86661 18.2942 8.86661 18.2021V4.65518C8.86661 4.56308 8.94196 4.48773 9.03406 4.48773H13.078C13.1701 4.48773 13.2455 4.41237 13.2455 4.32027V0.167452C13.2455 0.0753536 13.1701 0 13.078 0Z" fill="black"/>
<path d="M94.4304 9.91696C94.4764 10.5365 94.5685 11.1561 94.6439 11.7715C94.736 12.5208 94.6439 13.2534 94.7234 13.9944C94.87 15.3968 95.3723 16.4978 96.6282 17.1258C97.9971 17.8123 99.6423 18.5282 101.02 18.7794C102.987 19.1352 104.478 18.7668 106.093 17.3518C106.989 16.569 107.487 15.3759 107.948 14.3251C108.496 13.0734 109.212 11.8175 108.94 10.3984C108.681 9.05458 107.785 7.87404 107.048 6.76048C105.298 4.09799 103.397 3.56214 100.279 4.36172C99.14 4.65477 97.9553 4.81385 96.8668 5.2869C95.3053 5.96508 94.443 7.32145 94.4011 9.0169C94.3927 9.31413 94.4011 9.61136 94.4262 9.90859L94.4304 9.91696Z" fill="black"/>
<path d="M101.702 14.25C103.242 14.25 104.49 13.0017 104.49 11.4619C104.49 9.9221 103.242 8.67383 101.702 8.67383C100.162 8.67383 98.9141 9.9221 98.9141 11.4619C98.9141 13.0017 100.162 14.25 101.702 14.25Z" fill="#FFDC83"/>
<path d="M102.338 9.95428C102.33 10.0464 102.355 10.1427 102.422 10.2222C102.493 10.3059 102.594 10.3687 102.673 10.4399C102.778 10.5362 102.87 10.6492 102.937 10.7748C103.004 10.9004 103.016 11.0343 103.079 11.1557C103.171 11.3358 103.443 11.3986 103.552 11.1892C103.64 11.0176 103.552 10.7706 103.498 10.599C103.418 10.3645 103.364 10.2348 103.209 10.0254C103.083 9.8538 102.841 9.67379 102.614 9.69054C102.443 9.7031 102.351 9.82031 102.334 9.95009L102.338 9.95428Z" fill="black"/>
<path d="M103.402 12.1897C103.552 12.1897 103.674 12.0679 103.674 11.9176C103.674 11.7673 103.552 11.6455 103.402 11.6455C103.251 11.6455 103.129 11.7673 103.129 11.9176C103.129 12.0679 103.251 12.1897 103.402 12.1897Z" fill="black"/>
<path d="M30.3215 18.2233C30.3215 18.2233 30.3215 18.2149 30.3215 18.2107C30.3215 18.2065 30.3215 18.2023 30.3215 18.1981V11.3117C30.3215 8.27659 28.4712 5.67689 25.838 4.57589C24.9714 4.21169 24.0211 4.01074 23.0248 4.01074C18.9934 4.01074 15.7239 7.28025 15.7239 11.3117C15.7239 15.3431 18.9934 18.6084 23.0248 18.6084C24.0211 18.6084 24.9714 18.4075 25.838 18.0433V18.2023C25.838 18.2023 25.838 18.2023 25.838 18.2065C25.838 18.2944 25.9092 18.3614 25.9929 18.3614C25.9929 18.3614 25.9971 18.3614 26.0013 18.3614H30.1499C30.1499 18.3614 30.1583 18.3614 30.1666 18.3614C30.175 18.3614 30.175 18.3614 30.1834 18.3614H30.1918C30.2587 18.3489 30.3132 18.2986 30.3215 18.2275V18.2191V18.2233ZM23.0122 14.2505C21.4717 14.2505 20.2242 13.0029 20.2242 11.4666C20.2242 9.93018 21.4717 8.67848 23.0122 8.67848C24.5528 8.67848 25.7961 9.926 25.7961 11.4666C25.7961 13.0071 24.5486 14.2505 23.0122 14.2505Z" fill="black"/>
<path d="M74.6504 18.2233C74.6504 18.2233 74.6504 18.2149 74.6504 18.2107C74.6504 18.2065 74.6504 18.2023 74.6504 18.1981V11.3117C74.6504 8.27659 72.8001 5.67689 70.1669 4.57589C69.3003 4.21169 68.35 4.01074 67.3537 4.01074C63.3222 4.01074 60.0527 7.28025 60.0527 11.3117C60.0527 15.3431 63.3222 18.6084 67.3537 18.6084C68.35 18.6084 69.3003 18.4075 70.1669 18.0433V18.2023C70.1669 18.2023 70.1669 18.2023 70.1669 18.2065C70.1669 18.2944 70.238 18.3614 70.3218 18.3614C70.3218 18.3614 70.3259 18.3614 70.3301 18.3614H74.4788C74.4788 18.3614 74.4871 18.3614 74.4955 18.3614C74.5039 18.3614 74.5039 18.3614 74.5123 18.3614H74.5206C74.5876 18.3489 74.642 18.2986 74.6504 18.2275V18.2191V18.2233ZM67.3411 14.2505C65.8005 14.2505 64.553 13.0029 64.553 11.4666C64.553 9.93018 65.8005 8.67848 67.3411 8.67848C68.8817 8.67848 70.125 9.926 70.125 11.4666C70.125 13.0071 68.8775 14.2505 67.3411 14.2505Z" fill="black"/>
<path d="M57.792 9.65319C57.2562 7.35072 55.6361 5.46688 53.4969 4.57101C52.6303 4.2068 51.68 4.00586 50.6837 4.00586C48.7287 4.00586 46.9495 4.77614 45.635 6.03622L45.614 6.01529C45.4675 5.88133 45.3168 5.74736 45.1619 5.62178C45.1494 5.6134 45.141 5.60503 45.1326 5.59666C45.0447 5.52549 44.9568 5.45851 44.8647 5.39153C44.8438 5.37897 44.827 5.36641 44.8061 5.35385C44.7893 5.34129 44.7726 5.32873 44.7559 5.31617C44.7098 5.28687 44.6638 5.25338 44.6135 5.22408C44.5758 5.19477 44.5298 5.16965 44.4921 5.14454C44.3749 5.07337 44.2535 5.0022 44.1363 4.93522C44.086 4.90592 44.0358 4.87661 43.9856 4.84731C43.973 4.84312 43.9605 4.83894 43.9521 4.83056C43.8097 4.7594 43.6674 4.69241 43.5209 4.62962C43.4832 4.60869 43.4414 4.58776 43.4037 4.57101C42.5371 4.2068 41.5868 4.00586 40.5905 4.00586C38.6355 4.00586 36.8563 4.77614 35.5418 6.03622C34.2733 7.24606 33.4444 8.91221 33.3105 10.7709C33.2979 10.9468 33.2896 11.1268 33.2896 11.3068C33.2896 11.4868 33.2979 11.6668 33.3105 11.8426V18.1933C33.3105 18.2854 33.3817 18.3607 33.4779 18.3607H37.6433C37.727 18.3565 37.794 18.2854 37.794 18.2016V18.0258C37.794 17.6365 37.794 11.3696 37.794 11.3068C37.794 11.2272 37.7982 11.1519 37.8066 11.0807C37.9154 9.63645 39.1253 8.50614 40.5947 8.50614C42.0641 8.50614 43.1651 9.53598 43.3618 10.884C43.3702 10.9342 43.3786 10.9844 43.3827 11.0347C43.3786 11.1268 43.3786 11.2189 43.3786 11.3068C43.3786 11.4868 43.3869 11.6668 43.3995 11.8426V18.2016C43.3995 18.2895 43.4707 18.3565 43.5544 18.3565H47.7239C47.8077 18.3523 47.8747 18.2812 47.8747 18.1975V14.5554C47.8788 12.9269 47.8788 11.3319 47.8788 11.3026C47.8788 11.2231 47.883 11.1477 47.8914 11.0765C48.0002 9.63226 49.2101 8.50196 50.6795 8.50196C52.1489 8.50196 53.2499 9.53179 53.4466 10.8798C53.4718 11.0179 53.4843 11.1561 53.4843 11.3026V18.2393L53.4969 18.2477C53.5178 18.3063 53.568 18.3482 53.6308 18.3523H53.635H57.8004C57.8925 18.3523 57.9679 18.277 57.9679 18.1849V11.2984C57.9679 10.7291 57.9009 10.1765 57.7795 9.64482L57.792 9.65319Z" fill="black"/>
</svg>
