<svg width="907" height="206" viewBox="0 0 907 206" fill="none" xmlns="http://www.w3.org/2000/svg">
<path d="M764.312 115.422V95.0438C764.312 91.7694 764.033 88.5646 763.545 85.3946C763.476 85.0462 763.441 84.6979 763.371 84.3496C763.197 83.4438 763.023 82.5381 762.814 81.6324C762.396 79.821 761.908 78.0096 761.351 76.2679C761.246 75.9544 761.142 75.6757 761.037 75.3622C760.863 74.77 760.654 74.2126 760.41 73.5508C760.306 73.3069 760.201 73.0283 760.097 72.7496C759.47 71.1472 758.738 69.5796 757.972 68.0469C757.972 67.9772 757.902 67.8727 757.867 67.803C757.693 67.4547 757.484 67.1063 757.31 66.758C756.857 65.922 756.404 65.0511 755.882 64.1802C755.359 63.2745 754.767 62.3688 754.14 61.3934C754.07 61.3238 754.035 61.2541 754.001 61.1844C753.582 60.5574 753.164 60.0001 752.712 59.4079C752.328 58.8505 751.945 58.2931 751.492 57.701C750.273 56.1682 748.949 54.6703 747.591 53.2421C747.521 53.1724 747.486 53.1028 747.417 53.0331L746.163 51.779C745.083 50.6992 743.933 49.689 742.784 48.6788C742.61 48.5394 742.435 48.3652 742.226 48.1911C742.087 48.0866 741.913 47.9472 741.774 47.8079C741.356 47.4944 740.937 47.146 740.519 46.8325C740.45 46.7977 740.415 46.7628 740.345 46.6932C739.858 46.3448 739.405 45.9965 738.917 45.6481C738.882 45.6133 738.813 45.5785 738.778 45.5436C738.534 45.4043 738.325 45.2301 738.081 45.0908C737.872 44.9514 737.698 44.8121 737.489 44.6728C737.315 44.5334 737.071 44.4289 736.897 44.2896C735.956 43.6974 735.016 43.1052 734.075 42.5478C733.936 42.4782 733.831 42.3737 733.692 42.304C733.1 41.9556 732.438 41.6073 731.811 41.2938C730.243 40.4577 728.641 39.6914 727.004 38.9947C719.793 35.9641 711.885 34.292 703.595 34.292C700.599 34.292 697.638 34.501 694.747 34.9539C665.381 39.2385 642.843 64.4937 642.843 95.0438C642.843 110.754 648.834 125.106 658.658 135.905C659.459 136.776 660.26 137.612 661.096 138.413C667.088 144.3 674.264 148.898 682.276 151.894C686.247 153.392 690.427 154.472 694.747 155.099C697.638 155.552 700.599 155.761 703.595 155.761C709.551 155.761 715.299 154.89 720.733 153.288C721.987 152.904 722.998 154.367 722.266 155.447C718.643 160.568 713.627 164.609 707.775 167.047C703.769 168.719 699.38 169.66 694.747 169.66C687.362 169.66 680.534 167.256 674.995 163.215C674.403 162.763 673.567 162.867 673.079 163.459L652.388 189.481C651.9 190.108 652.004 191.014 652.631 191.466C664.336 200.384 678.897 205.644 694.781 205.644C704.291 205.644 713.383 203.728 721.639 200.245C734.563 194.845 745.501 185.684 753.095 174.119H753.234C755.638 170.461 757.623 166.49 759.261 162.379C759.47 161.822 759.713 161.265 759.922 160.707C759.992 160.533 760.062 160.359 760.097 160.185L760.619 158.826C760.619 158.826 760.654 158.687 760.689 158.617C763.824 149.7 764.416 140.399 764.451 131.063C764.451 125.838 764.312 120.613 764.312 115.422ZM686.526 113.471C686.526 113.471 686.282 113.262 686.177 113.123C667.645 88.3555 695.478 60.6271 720.106 79.2288C720.246 79.3333 720.35 79.4378 720.455 79.5772C739.056 104.205 711.293 132.038 686.56 113.506L686.526 113.471Z" fill="black"/>
<path d="M108.824 0.955078H1.39339C0.627026 0.955078 0 1.5821 0 2.34847V36.9046C0 37.6709 0.627026 38.2979 1.39339 38.2979H35.0438C35.8101 38.2979 36.4372 38.925 36.4372 39.6913V152.417C36.4372 153.183 37.0642 153.81 37.8306 153.81H72.3866C73.153 153.81 73.78 153.183 73.78 152.417V39.6913C73.78 38.925 74.4071 38.2979 75.1734 38.2979H108.824C109.59 38.2979 110.217 37.6709 110.217 36.9046V2.34847C110.217 1.5821 109.59 0.955078 108.824 0.955078Z" fill="black"/>
<path fill-rule="evenodd" clip-rule="evenodd" d="M787.034 94.9058C786.543 91.1062 786.05 87.2925 785.766 83.4788L785.731 83.4091C785.522 80.9358 785.453 78.4626 785.522 75.9893C785.871 61.8812 793.047 50.5948 806.04 44.9515C812.374 42.1987 819.1 40.7236 825.812 39.2515C828.698 38.6186 831.581 37.9862 834.43 37.2531C860.382 30.5996 876.197 35.0585 890.758 57.2134C891.569 58.4395 892.404 59.6754 893.246 60.923C898.769 69.103 904.629 77.7825 906.503 87.4848C908.462 97.7017 904.268 106.902 900.146 115.942C899.503 117.351 898.863 118.756 898.247 120.16C898.091 120.517 897.934 120.876 897.776 121.236C894.072 129.708 889.966 139.097 882.816 145.345C869.369 157.119 856.968 160.185 840.596 157.224C829.135 155.134 815.445 149.177 804.054 143.464C793.604 138.239 789.424 129.077 788.205 117.408C787.885 114.434 787.898 111.476 787.911 108.512C787.925 105.329 787.939 102.139 787.543 98.9106C787.379 97.5778 787.207 96.2427 787.034 94.9058ZM869.475 96.333C869.475 109.146 859.088 119.533 846.275 119.533C833.462 119.533 823.075 109.146 823.075 96.333C823.075 83.52 833.462 73.133 846.275 73.133C859.088 73.133 869.475 83.52 869.475 96.333Z" fill="black"/>
<path d="M851.568 83.7925C851.498 84.5589 851.707 85.3601 852.264 86.0219C852.856 86.7186 853.692 87.2411 854.354 87.8333C855.225 88.6345 855.992 89.5751 856.549 90.6201C857.106 91.6651 857.211 92.7799 857.733 93.7901C858.5 95.288 860.764 95.8105 861.67 94.0687C862.401 92.6405 861.67 90.5853 861.217 89.157C860.555 87.2063 860.102 86.1264 858.813 84.3847C857.768 82.9565 855.748 81.4586 853.867 81.5979C852.438 81.7024 851.672 82.6778 851.533 83.7577L851.568 83.7925Z" fill="black"/>
<path d="M860.416 102.395C861.666 102.395 862.68 101.381 862.68 100.13C862.68 98.88 861.666 97.8662 860.416 97.8662C859.165 97.8662 858.151 98.88 858.151 100.13C858.151 101.381 859.165 102.395 860.416 102.395Z" fill="black"/>
<path d="M252.307 152.591C252.307 152.591 252.307 152.521 252.307 152.487C252.307 152.452 252.307 152.417 252.307 152.382V95.079C252.307 69.8238 236.91 48.1914 214.999 39.0298C207.788 35.9992 199.88 34.3271 191.59 34.3271C158.044 34.3271 130.838 61.5331 130.838 95.079C130.838 128.625 158.044 155.796 191.59 155.796C199.88 155.796 207.788 154.124 214.999 151.093V152.417C214.999 152.417 214.999 152.417 214.999 152.452C214.999 153.183 215.591 153.741 216.288 153.741C216.288 153.741 216.322 153.741 216.357 153.741H250.878C250.878 153.741 250.948 153.741 251.018 153.741C251.087 153.741 251.087 153.741 251.157 153.741H251.227C251.784 153.636 252.237 153.218 252.307 152.626V152.556V152.591ZM191.485 119.533C178.666 119.533 168.285 109.152 168.285 96.3679C168.285 83.5835 178.666 73.1679 191.485 73.1679C204.304 73.1679 214.65 83.5487 214.65 96.3679C214.65 109.187 204.27 119.533 191.485 119.533Z" fill="black"/>
<path d="M621.174 152.591C621.174 152.591 621.174 152.521 621.174 152.487C621.174 152.452 621.174 152.417 621.174 152.382V95.079C621.174 69.8238 605.777 48.1914 583.866 39.0298C576.656 35.9992 568.748 34.3271 560.457 34.3271C526.912 34.3271 499.706 61.5331 499.706 95.079C499.706 128.625 526.912 155.796 560.457 155.796C568.748 155.796 576.656 154.124 583.866 151.093V152.417C583.866 152.417 583.866 152.417 583.866 152.452C583.866 153.183 584.459 153.741 585.155 153.741C585.155 153.741 585.19 153.741 585.225 153.741H619.746C619.746 153.741 619.816 153.741 619.886 153.741C619.955 153.741 619.955 153.741 620.025 153.741H620.095C620.652 153.636 621.105 153.218 621.174 152.626V152.556V152.591ZM560.353 119.533C547.534 119.533 537.153 109.152 537.153 96.3679C537.153 83.5835 547.534 73.1679 560.353 73.1679C573.172 73.1679 583.518 83.5487 583.518 96.3679C583.518 109.187 573.137 119.533 560.353 119.533Z" fill="black"/>
<path d="M480.894 81.2841C476.435 62.125 462.954 46.4493 445.154 38.9947C437.943 35.9641 430.035 34.292 421.745 34.292C405.477 34.292 390.672 40.7016 379.734 51.1869L379.56 51.0127C378.341 49.898 377.087 48.7833 375.798 47.7382C375.693 47.6685 375.624 47.5989 375.554 47.5292C374.822 46.937 374.091 46.3797 373.324 45.8223C373.15 45.7178 373.011 45.6133 372.837 45.5088C372.697 45.4043 372.558 45.2998 372.419 45.1953C372.036 44.9514 371.652 44.6728 371.234 44.4289C370.921 44.1851 370.538 43.9761 370.224 43.767C369.249 43.1749 368.239 42.5827 367.263 42.0253C366.845 41.7815 366.427 41.5376 366.009 41.2938C365.905 41.2589 365.8 41.2241 365.73 41.1544C364.546 40.5623 363.362 40.0049 362.143 39.4824C361.829 39.3082 361.481 39.134 361.167 38.9947C353.956 35.9641 346.049 34.292 337.758 34.292C321.49 34.292 306.686 40.7016 295.747 51.1869C285.193 61.2541 278.295 75.1183 277.181 90.585C277.076 92.048 277.006 93.5459 277.006 95.0438C277.006 96.5417 277.076 98.0396 277.181 99.5027V152.347C277.181 153.113 277.773 153.74 278.574 153.74H313.235C313.931 153.706 314.489 153.113 314.489 152.417V150.954C314.489 147.714 314.489 95.5663 314.489 95.0438C314.489 94.382 314.523 93.7549 314.593 93.1627C315.499 81.1447 325.566 71.7394 337.793 71.7394C350.02 71.7394 359.182 80.3087 360.819 91.5255C360.888 91.9435 360.958 92.3615 360.993 92.7796C360.958 93.5459 360.958 94.3123 360.958 95.0438C360.958 96.5417 361.028 98.0396 361.132 99.5027V152.417C361.132 153.148 361.725 153.706 362.421 153.706H397.117C397.813 153.671 398.371 153.079 398.371 152.382V122.076C398.406 108.525 398.406 95.2528 398.406 95.009C398.406 94.3471 398.44 93.7201 398.51 93.1279C399.416 81.1099 409.483 71.7045 421.71 71.7045C433.937 71.7045 443.098 80.2739 444.736 91.4907C444.945 92.6402 445.049 93.7898 445.049 95.009V152.73L445.154 152.8C445.328 153.288 445.746 153.636 446.268 153.671H446.303H480.964C481.73 153.671 482.357 153.044 482.357 152.277V94.9741C482.357 90.2366 481.8 85.6384 480.79 81.2144L480.894 81.2841Z" fill="black"/>
</svg>
