<svg width="22" height="22" viewBox="0 0 22 22" fill="none" xmlns="http://www.w3.org/2000/svg">
<path d="M19.4985 8.41328C19.2326 7.99161 18.9485 7.59745 18.6551 7.23078C18.5751 7.12934 18.4746 7.04596 18.36 6.98611C18.2455 6.92626 18.1197 6.89129 17.9907 6.8835C17.8617 6.87571 17.7326 6.89528 17.6117 6.94091C17.4908 6.98654 17.381 7.05721 17.2893 7.14828L14.5393 9.89828C14.741 10.5033 14.7776 11.1999 14.5943 11.9241C14.4305 12.565 14.0973 13.1499 13.6295 13.6177C13.1618 14.0854 12.5768 14.4186 11.936 14.5824C11.2118 14.7658 10.5151 14.7291 9.91014 14.5274L7.65514 16.7824C7.1968 17.2408 7.34347 18.0474 7.95764 18.2858C8.93847 18.6616 9.95597 18.8541 11.001 18.8541C12.6326 18.8541 14.2185 18.3774 15.6668 17.4883C17.1426 16.5716 18.4718 15.2241 19.5443 13.5099C20.4151 12.1258 20.3693 9.79745 19.4985 8.41328ZM12.8517 9.14845L9.14839 12.8518C8.68089 12.3751 8.37839 11.7151 8.37839 11.0001C8.37839 9.56095 9.55172 8.37845 11.0001 8.37845C11.7151 8.37845 12.3751 8.68095 12.8517 9.14845Z" fill="#B1B1B1"/>
<path d="M16.7291 5.27071L13.6216 8.37821C13.2787 8.03229 12.8702 7.75839 12.42 7.57264C11.9698 7.38688 11.4869 7.29301 10.9999 7.29654C8.94659 7.29654 7.29659 8.95571 7.29659 10.9999C7.29659 12.0265 7.70909 12.9524 8.37825 13.6215L5.27992 16.729H5.27075C4.25325 15.904 3.31825 14.8499 2.52075 13.6032C1.60409 12.164 1.60409 9.82654 2.52075 8.38738C3.58409 6.71904 4.88575 5.40821 6.33409 4.50988C7.78242 3.62988 9.36825 3.14404 10.9999 3.14404C13.0441 3.14404 15.0241 3.89571 16.7291 5.27071ZM13.6198 10.998C13.6198 12.4372 12.4464 13.6197 10.9981 13.6197C10.9431 13.6197 10.8973 13.6197 10.8423 13.6014L13.6014 10.8422C13.6198 10.8972 13.6198 10.943 13.6198 10.998Z" fill="#B1B1B1"/>
<path d="M19.9548 2.04316C19.6798 1.76816 19.2307 1.76816 18.9557 2.04316L2.04316 18.9648C1.76816 19.2398 1.76816 19.689 2.04316 19.964C2.10842 20.029 2.18596 20.0804 2.27127 20.1152C2.35658 20.15 2.44796 20.1675 2.54008 20.1666C2.63221 20.1658 2.72325 20.1466 2.8079 20.1103C2.89255 20.0739 2.96912 20.0211 3.03316 19.9548L19.9548 3.03316C20.239 2.75816 20.239 2.31816 19.9548 2.04316Z" fill="#B1B1B1"/>
</svg>
